<mxfile host="www.draw.io" modified="2020-02-15T15:57:58.758Z" agent="Mozilla/5.0 (Windows NT 10.0; Win64; x64) AppleWebKit/537.36 (KHTML, like Gecko) Chrome/79.0.3945.130 Safari/537.36" etag="jJBVNSxjhvlcTvCGQLND" version="12.7.0" type="github">
  <diagram id="jN9ZzLNDDYYRKlVLCkU8" name="Page-1">
    <mxGraphModel dx="2017" dy="2374" grid="1" gridSize="10" guides="1" tooltips="1" connect="1" arrows="1" fold="1" page="1" pageScale="1" pageWidth="850" pageHeight="1100" math="0" shadow="0">
      <root>
        <mxCell id="0"/>
        <mxCell id="1" parent="0"/>
        <mxCell id="iJIT8fu7xfQn46Ji7LRA-87" value="" style="rounded=0;whiteSpace=wrap;html=1;strokeColor=#000000;fillColor=#ffffff;" parent="1" vertex="1">
          <mxGeometry x="110" y="420" width="800" height="690" as="geometry"/>
        </mxCell>
        <mxCell id="iJIT8fu7xfQn46Ji7LRA-133" value="" style="rounded=0;whiteSpace=wrap;html=1;strokeColor=#000000;fillColor=#ffffff;" parent="1" vertex="1">
          <mxGeometry x="120" y="865" width="680" height="230" as="geometry"/>
        </mxCell>
        <mxCell id="iJIT8fu7xfQn46Ji7LRA-104" value="" style="rounded=0;whiteSpace=wrap;html=1;strokeColor=#000000;fillColor=#ffffff;" parent="1" vertex="1">
          <mxGeometry x="120" y="597" width="770" height="258" as="geometry"/>
        </mxCell>
        <mxCell id="iJIT8fu7xfQn46Ji7LRA-89" value="Opt" style="rounded=0;whiteSpace=wrap;html=1;strokeColor=#000000;fillColor=#ffffff;" parent="1" vertex="1">
          <mxGeometry x="110" y="455" width="47.59615384615385" height="20" as="geometry"/>
        </mxCell>
        <mxCell id="iJIT8fu7xfQn46Ji7LRA-91" value="[Found]" style="text;html=1;strokeColor=none;fillColor=none;align=center;verticalAlign=middle;whiteSpace=wrap;rounded=0;" parent="1" vertex="1">
          <mxGeometry x="114.75961538461539" y="475" width="38.07692307692308" height="20" as="geometry"/>
        </mxCell>
        <mxCell id="iJIT8fu7xfQn46Ji7LRA-93" value="" style="endArrow=classic;html=1;dashed=1;" parent="1" edge="1">
          <mxGeometry width="50" height="50" relative="1" as="geometry">
            <mxPoint x="490" y="471.16999999999996" as="sourcePoint"/>
            <mxPoint x="360" y="471.16999999999996" as="targetPoint"/>
          </mxGeometry>
        </mxCell>
        <mxCell id="iJIT8fu7xfQn46Ji7LRA-94" value="Confirm product found" style="rounded=0;whiteSpace=wrap;html=1;strokeColor=#000000;" parent="1" vertex="1">
          <mxGeometry x="380" y="425.16999999999996" width="90" height="41" as="geometry"/>
        </mxCell>
        <mxCell id="iJIT8fu7xfQn46Ji7LRA-95" value="" style="endArrow=classic;html=1;dashed=1;" parent="1" edge="1">
          <mxGeometry width="50" height="50" relative="1" as="geometry">
            <mxPoint x="340" y="509" as="sourcePoint"/>
            <mxPoint x="210" y="509" as="targetPoint"/>
          </mxGeometry>
        </mxCell>
        <mxCell id="iJIT8fu7xfQn46Ji7LRA-96" value="Provide options" style="rounded=0;whiteSpace=wrap;html=1;strokeColor=#000000;" parent="1" vertex="1">
          <mxGeometry x="230" y="463" width="90" height="41" as="geometry"/>
        </mxCell>
        <mxCell id="iJIT8fu7xfQn46Ji7LRA-97" value="Select option" style="rounded=0;whiteSpace=wrap;html=1;strokeColor=#000000;" parent="1" vertex="1">
          <mxGeometry x="230.5" y="535" width="90" height="41" as="geometry"/>
        </mxCell>
        <mxCell id="iJIT8fu7xfQn46Ji7LRA-98" value="" style="endArrow=classic;html=1;" parent="1" edge="1">
          <mxGeometry width="50" height="50" relative="1" as="geometry">
            <mxPoint x="208.5" y="581" as="sourcePoint"/>
            <mxPoint x="341.5" y="581" as="targetPoint"/>
          </mxGeometry>
        </mxCell>
        <mxCell id="hV3SvycA8Y3fYOB4Zh-P-26" style="edgeStyle=orthogonalEdgeStyle;rounded=0;orthogonalLoop=1;jettySize=auto;html=1;exitX=0.5;exitY=1;exitDx=0;exitDy=0;entryX=0.11;entryY=0.035;entryDx=0;entryDy=0;entryPerimeter=0;" parent="1" source="hV3SvycA8Y3fYOB4Zh-P-53" target="iJIT8fu7xfQn46Ji7LRA-39" edge="1">
          <mxGeometry relative="1" as="geometry">
            <mxPoint x="200" y="760" as="targetPoint"/>
          </mxGeometry>
        </mxCell>
        <mxCell id="hV3SvycA8Y3fYOB4Zh-P-27" value="&lt;div&gt;ACTOR&lt;/div&gt;" style="rounded=0;whiteSpace=wrap;html=1;" parent="1" vertex="1">
          <mxGeometry x="150" y="50" width="100" height="40" as="geometry"/>
        </mxCell>
        <mxCell id="hV3SvycA8Y3fYOB4Zh-P-28" style="edgeStyle=orthogonalEdgeStyle;rounded=0;orthogonalLoop=1;jettySize=auto;html=1;exitX=0.5;exitY=1;exitDx=0;exitDy=0;entryX=0.257;entryY=0.003;entryDx=0;entryDy=0;entryPerimeter=0;" parent="1" source="hV3SvycA8Y3fYOB4Zh-P-54" target="iJIT8fu7xfQn46Ji7LRA-39" edge="1">
          <mxGeometry relative="1" as="geometry">
            <mxPoint x="353" y="968" as="targetPoint"/>
            <Array as="points">
              <mxPoint x="347" y="670"/>
            </Array>
          </mxGeometry>
        </mxCell>
        <mxCell id="hV3SvycA8Y3fYOB4Zh-P-29" value="UI" style="rounded=0;whiteSpace=wrap;html=1;" parent="1" vertex="1">
          <mxGeometry x="300" y="50" width="100" height="40" as="geometry"/>
        </mxCell>
        <mxCell id="hV3SvycA8Y3fYOB4Zh-P-30" style="edgeStyle=orthogonalEdgeStyle;rounded=0;orthogonalLoop=1;jettySize=auto;html=1;entryX=0.41;entryY=0.046;entryDx=0;entryDy=0;entryPerimeter=0;" parent="1" source="iJIT8fu7xfQn46Ji7LRA-130" target="iJIT8fu7xfQn46Ji7LRA-39" edge="1">
          <mxGeometry relative="1" as="geometry">
            <mxPoint x="500" y="760" as="targetPoint"/>
          </mxGeometry>
        </mxCell>
        <mxCell id="hV3SvycA8Y3fYOB4Zh-P-31" value="&lt;div&gt;System&lt;/div&gt;" style="rounded=0;whiteSpace=wrap;html=1;" parent="1" vertex="1">
          <mxGeometry x="450" y="50" width="100" height="40" as="geometry"/>
        </mxCell>
        <mxCell id="hV3SvycA8Y3fYOB4Zh-P-39" style="edgeStyle=orthogonalEdgeStyle;rounded=0;orthogonalLoop=1;jettySize=auto;html=1;exitX=0.5;exitY=1;exitDx=0;exitDy=0;" parent="1" source="hV3SvycA8Y3fYOB4Zh-P-27" target="hV3SvycA8Y3fYOB4Zh-P-53" edge="1">
          <mxGeometry relative="1" as="geometry">
            <mxPoint x="200" y="760" as="targetPoint"/>
            <mxPoint x="200" y="90" as="sourcePoint"/>
          </mxGeometry>
        </mxCell>
        <mxCell id="hV3SvycA8Y3fYOB4Zh-P-40" style="edgeStyle=orthogonalEdgeStyle;rounded=0;orthogonalLoop=1;jettySize=auto;html=1;exitX=0.5;exitY=1;exitDx=0;exitDy=0;" parent="1" source="hV3SvycA8Y3fYOB4Zh-P-29" target="hV3SvycA8Y3fYOB4Zh-P-54" edge="1">
          <mxGeometry relative="1" as="geometry">
            <mxPoint x="350" y="760" as="targetPoint"/>
            <mxPoint x="350" y="90" as="sourcePoint"/>
          </mxGeometry>
        </mxCell>
        <mxCell id="hV3SvycA8Y3fYOB4Zh-P-41" value="" style="rounded=0;whiteSpace=wrap;html=1;" parent="1" vertex="1">
          <mxGeometry x="495" y="310" width="10" height="170" as="geometry"/>
        </mxCell>
        <mxCell id="hV3SvycA8Y3fYOB4Zh-P-42" style="edgeStyle=orthogonalEdgeStyle;rounded=0;orthogonalLoop=1;jettySize=auto;html=1;" parent="1" source="hV3SvycA8Y3fYOB4Zh-P-31" target="hV3SvycA8Y3fYOB4Zh-P-41" edge="1">
          <mxGeometry relative="1" as="geometry">
            <mxPoint x="500" y="760" as="targetPoint"/>
            <mxPoint x="500" y="90" as="sourcePoint"/>
            <Array as="points">
              <mxPoint x="499" y="140"/>
              <mxPoint x="499" y="140"/>
            </Array>
          </mxGeometry>
        </mxCell>
        <mxCell id="hV3SvycA8Y3fYOB4Zh-P-52" value="&lt;div&gt;&lt;br&gt;&lt;/div&gt;&lt;div&gt;&lt;br&gt;&lt;/div&gt;" style="text;html=1;align=center;verticalAlign=middle;resizable=0;points=[];autosize=1;" parent="1" vertex="1">
          <mxGeometry x="230" y="660" width="20" height="30" as="geometry"/>
        </mxCell>
        <mxCell id="hV3SvycA8Y3fYOB4Zh-P-53" value="" style="rounded=0;whiteSpace=wrap;html=1;" parent="1" vertex="1">
          <mxGeometry x="195" y="150" width="10" height="990" as="geometry"/>
        </mxCell>
        <mxCell id="hV3SvycA8Y3fYOB4Zh-P-54" value="" style="rounded=0;whiteSpace=wrap;html=1;" parent="1" vertex="1">
          <mxGeometry x="345" y="150" width="10" height="990" as="geometry"/>
        </mxCell>
        <mxCell id="hV3SvycA8Y3fYOB4Zh-P-61" value="" style="endArrow=classic;html=1;" parent="1" edge="1">
          <mxGeometry width="50" height="50" relative="1" as="geometry">
            <mxPoint x="205" y="180" as="sourcePoint"/>
            <mxPoint x="340" y="180" as="targetPoint"/>
          </mxGeometry>
        </mxCell>
        <mxCell id="hV3SvycA8Y3fYOB4Zh-P-62" value="Provide product id" style="rounded=0;whiteSpace=wrap;html=1;strokeColor=#000000;" parent="1" vertex="1">
          <mxGeometry x="230.5" y="250" width="90" height="41" as="geometry"/>
        </mxCell>
        <mxCell id="hV3SvycA8Y3fYOB4Zh-P-63" value="" style="endArrow=classic;html=1;" parent="1" edge="1">
          <mxGeometry width="50" height="50" relative="1" as="geometry">
            <mxPoint x="208.5" y="296" as="sourcePoint"/>
            <mxPoint x="341.5" y="296" as="targetPoint"/>
          </mxGeometry>
        </mxCell>
        <mxCell id="hV3SvycA8Y3fYOB4Zh-P-3" value="ACTOR request to make changes to some product" style="rounded=0;whiteSpace=wrap;html=1;strokeColor=#000000;" parent="1" vertex="1">
          <mxGeometry x="220" y="120" width="100" height="50" as="geometry"/>
        </mxCell>
        <mxCell id="iJIT8fu7xfQn46Ji7LRA-2" value="&lt;div&gt;ProductList&lt;/div&gt;" style="rounded=0;whiteSpace=wrap;html=1;" parent="1" vertex="1">
          <mxGeometry x="600" y="50" width="100" height="40" as="geometry"/>
        </mxCell>
        <mxCell id="iJIT8fu7xfQn46Ji7LRA-4" style="edgeStyle=orthogonalEdgeStyle;rounded=0;orthogonalLoop=1;jettySize=auto;html=1;" parent="1" source="iJIT8fu7xfQn46Ji7LRA-2" target="iJIT8fu7xfQn46Ji7LRA-3" edge="1">
          <mxGeometry relative="1" as="geometry">
            <mxPoint x="650" y="760" as="targetPoint"/>
            <mxPoint x="650" y="90" as="sourcePoint"/>
            <Array as="points">
              <mxPoint x="649" y="130"/>
              <mxPoint x="649" y="130"/>
            </Array>
          </mxGeometry>
        </mxCell>
        <mxCell id="iJIT8fu7xfQn46Ji7LRA-26" value="" style="endArrow=classic;html=1;dashed=1;" parent="1" edge="1">
          <mxGeometry width="50" height="50" relative="1" as="geometry">
            <mxPoint x="340" y="240" as="sourcePoint"/>
            <mxPoint x="210" y="240" as="targetPoint"/>
          </mxGeometry>
        </mxCell>
        <mxCell id="iJIT8fu7xfQn46Ji7LRA-27" value="Request product id" style="rounded=0;whiteSpace=wrap;html=1;strokeColor=#000000;" parent="1" vertex="1">
          <mxGeometry x="230" y="194" width="90" height="41" as="geometry"/>
        </mxCell>
        <mxCell id="iJIT8fu7xfQn46Ji7LRA-39" value="&lt;font style=&quot;font-size: 36px&quot;&gt;FINISH&lt;/font&gt;" style="rounded=0;whiteSpace=wrap;html=1;fillColor=#ffffff;strokeColor=#000000;" parent="1" vertex="1">
          <mxGeometry x="90" y="1210" width="1000" height="60" as="geometry"/>
        </mxCell>
        <mxCell id="iJIT8fu7xfQn46Ji7LRA-85" value="Pass product id" style="rounded=0;whiteSpace=wrap;html=1;strokeColor=#000000;" parent="1" vertex="1">
          <mxGeometry x="384" y="272.57" width="90" height="41" as="geometry"/>
        </mxCell>
        <mxCell id="iJIT8fu7xfQn46Ji7LRA-86" value="" style="endArrow=classic;html=1;" parent="1" edge="1">
          <mxGeometry width="50" height="50" relative="1" as="geometry">
            <mxPoint x="362" y="318.57" as="sourcePoint"/>
            <mxPoint x="495" y="318.57" as="targetPoint"/>
          </mxGeometry>
        </mxCell>
        <mxCell id="iJIT8fu7xfQn46Ji7LRA-99" value="" style="rounded=0;whiteSpace=wrap;html=1;" parent="1" vertex="1">
          <mxGeometry x="495" y="635" width="10" height="180" as="geometry"/>
        </mxCell>
        <mxCell id="iJIT8fu7xfQn46Ji7LRA-100" style="edgeStyle=orthogonalEdgeStyle;rounded=0;orthogonalLoop=1;jettySize=auto;html=1;" parent="1" edge="1">
          <mxGeometry relative="1" as="geometry">
            <mxPoint x="499" y="635" as="targetPoint"/>
            <mxPoint x="499" y="480" as="sourcePoint"/>
            <Array as="points">
              <mxPoint x="499" y="555"/>
            </Array>
          </mxGeometry>
        </mxCell>
        <mxCell id="iJIT8fu7xfQn46Ji7LRA-101" value="Send Update Request with Data" style="rounded=0;whiteSpace=wrap;html=1;strokeColor=#000000;" parent="1" vertex="1">
          <mxGeometry x="380.5" y="603" width="90" height="42" as="geometry"/>
        </mxCell>
        <mxCell id="iJIT8fu7xfQn46Ji7LRA-102" value="" style="endArrow=classic;html=1;" parent="1" edge="1">
          <mxGeometry width="50" height="50" relative="1" as="geometry">
            <mxPoint x="358.5" y="649" as="sourcePoint"/>
            <mxPoint x="491.5" y="649" as="targetPoint"/>
          </mxGeometry>
        </mxCell>
        <mxCell id="iJIT8fu7xfQn46Ji7LRA-70" style="edgeStyle=orthogonalEdgeStyle;rounded=0;orthogonalLoop=1;jettySize=auto;html=1;" parent="1" edge="1">
          <mxGeometry relative="1" as="geometry">
            <Array as="points">
              <mxPoint x="505" y="667"/>
            </Array>
            <mxPoint x="505" y="667" as="sourcePoint"/>
            <mxPoint x="645" y="667" as="targetPoint"/>
          </mxGeometry>
        </mxCell>
        <mxCell id="iJIT8fu7xfQn46Ji7LRA-121" value="" style="endArrow=classic;html=1;dashed=1;" parent="1" edge="1">
          <mxGeometry width="50" height="50" relative="1" as="geometry">
            <mxPoint x="491" y="811" as="sourcePoint"/>
            <mxPoint x="361" y="811" as="targetPoint"/>
          </mxGeometry>
        </mxCell>
        <mxCell id="iJIT8fu7xfQn46Ji7LRA-122" value="Send Change Confirmation" style="rounded=0;whiteSpace=wrap;html=1;strokeColor=#000000;" parent="1" vertex="1">
          <mxGeometry x="381" y="765" width="90" height="41" as="geometry"/>
        </mxCell>
        <mxCell id="iJIT8fu7xfQn46Ji7LRA-105" value="Opt" style="rounded=0;whiteSpace=wrap;html=1;strokeColor=#000000;fillColor=#ffffff;" parent="1" vertex="1">
          <mxGeometry x="120" y="597" width="40.38461538461539" height="20" as="geometry"/>
        </mxCell>
        <mxCell id="iJIT8fu7xfQn46Ji7LRA-106" value="[Update]" style="text;html=1;strokeColor=none;fillColor=none;align=center;verticalAlign=middle;whiteSpace=wrap;rounded=0;" parent="1" vertex="1">
          <mxGeometry x="120.04" y="617" width="55.96" height="20" as="geometry"/>
        </mxCell>
        <mxCell id="iJIT8fu7xfQn46Ji7LRA-3" value="" style="rounded=0;whiteSpace=wrap;html=1;" parent="1" vertex="1">
          <mxGeometry x="645" y="652" width="10" height="125" as="geometry"/>
        </mxCell>
        <mxCell id="iJIT8fu7xfQn46Ji7LRA-116" value="Call Update Funciton" style="rounded=0;whiteSpace=wrap;html=1;strokeColor=#000000;" parent="1" vertex="1">
          <mxGeometry x="530" y="617" width="90" height="41" as="geometry"/>
        </mxCell>
        <mxCell id="iJIT8fu7xfQn46Ji7LRA-117" value="" style="endArrow=classic;html=1;dashed=1;" parent="1" edge="1">
          <mxGeometry width="50" height="50" relative="1" as="geometry">
            <mxPoint x="640" y="771" as="sourcePoint"/>
            <mxPoint x="510" y="771" as="targetPoint"/>
          </mxGeometry>
        </mxCell>
        <mxCell id="iJIT8fu7xfQn46Ji7LRA-118" value="Confirm Change" style="rounded=0;whiteSpace=wrap;html=1;strokeColor=#000000;" parent="1" vertex="1">
          <mxGeometry x="530" y="725" width="90" height="41" as="geometry"/>
        </mxCell>
        <mxCell id="iJIT8fu7xfQn46Ji7LRA-126" value="" style="endArrow=classic;html=1;dashed=1;" parent="1" edge="1">
          <mxGeometry width="50" height="50" relative="1" as="geometry">
            <mxPoint x="340" y="832.5" as="sourcePoint"/>
            <mxPoint x="210" y="832.5" as="targetPoint"/>
          </mxGeometry>
        </mxCell>
        <mxCell id="iJIT8fu7xfQn46Ji7LRA-127" value="Send Change Confirmation" style="rounded=0;whiteSpace=wrap;html=1;strokeColor=#000000;" parent="1" vertex="1">
          <mxGeometry x="230" y="786.5" width="90" height="41" as="geometry"/>
        </mxCell>
        <mxCell id="iJIT8fu7xfQn46Ji7LRA-128" value="Send View Request" style="rounded=0;whiteSpace=wrap;html=1;strokeColor=#000000;" parent="1" vertex="1">
          <mxGeometry x="381.5" y="875" width="90" height="41" as="geometry"/>
        </mxCell>
        <mxCell id="iJIT8fu7xfQn46Ji7LRA-129" value="" style="endArrow=classic;html=1;" parent="1" edge="1">
          <mxGeometry width="50" height="50" relative="1" as="geometry">
            <mxPoint x="359.5" y="921" as="sourcePoint"/>
            <mxPoint x="492.5" y="921" as="targetPoint"/>
          </mxGeometry>
        </mxCell>
        <mxCell id="iJIT8fu7xfQn46Ji7LRA-130" value="" style="rounded=0;whiteSpace=wrap;html=1;" parent="1" vertex="1">
          <mxGeometry x="495" y="916" width="10" height="159" as="geometry"/>
        </mxCell>
        <mxCell id="iJIT8fu7xfQn46Ji7LRA-131" style="edgeStyle=orthogonalEdgeStyle;rounded=0;orthogonalLoop=1;jettySize=auto;html=1;" parent="1" source="iJIT8fu7xfQn46Ji7LRA-99" edge="1">
          <mxGeometry relative="1" as="geometry">
            <mxPoint x="497" y="916" as="targetPoint"/>
            <mxPoint x="500" y="835" as="sourcePoint"/>
            <Array as="points">
              <mxPoint x="497" y="855"/>
              <mxPoint x="497" y="855"/>
            </Array>
          </mxGeometry>
        </mxCell>
        <mxCell id="iJIT8fu7xfQn46Ji7LRA-1" style="edgeStyle=orthogonalEdgeStyle;rounded=0;orthogonalLoop=1;jettySize=auto;html=1;entryX=0.56;entryY=0.065;entryDx=0;entryDy=0;entryPerimeter=0;" parent="1" source="iJIT8fu7xfQn46Ji7LRA-3" target="iJIT8fu7xfQn46Ji7LRA-39" edge="1">
          <mxGeometry relative="1" as="geometry">
            <mxPoint x="650" y="914.7058823529412" as="targetPoint"/>
          </mxGeometry>
        </mxCell>
        <mxCell id="iJIT8fu7xfQn46Ji7LRA-134" value="Opt" style="rounded=0;whiteSpace=wrap;html=1;strokeColor=#000000;fillColor=#ffffff;" parent="1" vertex="1">
          <mxGeometry x="120" y="865" width="40.38461538461539" height="20" as="geometry"/>
        </mxCell>
        <mxCell id="iJIT8fu7xfQn46Ji7LRA-135" value="[View]" style="text;html=1;strokeColor=none;fillColor=none;align=center;verticalAlign=middle;whiteSpace=wrap;rounded=0;" parent="1" vertex="1">
          <mxGeometry x="124.04" y="885" width="35.96" height="20" as="geometry"/>
        </mxCell>
        <mxCell id="iJIT8fu7xfQn46Ji7LRA-138" style="edgeStyle=orthogonalEdgeStyle;rounded=0;orthogonalLoop=1;jettySize=auto;html=1;exitX=0.995;exitY=0.352;exitDx=0;exitDy=0;exitPerimeter=0;" parent="1" edge="1">
          <mxGeometry relative="1" as="geometry">
            <Array as="points">
              <mxPoint x="504.62" y="945"/>
            </Array>
            <mxPoint x="504.9729411764707" y="983.9411764705883" as="sourcePoint"/>
            <mxPoint x="644.9729411764707" y="945.1176470588236" as="targetPoint"/>
          </mxGeometry>
        </mxCell>
        <mxCell id="iJIT8fu7xfQn46Ji7LRA-140" value="Call Get Funciton" style="rounded=0;whiteSpace=wrap;html=1;strokeColor=#000000;" parent="1" vertex="1">
          <mxGeometry x="530.62" y="895" width="90" height="41" as="geometry"/>
        </mxCell>
        <mxCell id="iJIT8fu7xfQn46Ji7LRA-144" value="" style="endArrow=classic;html=1;dashed=1;" parent="1" edge="1">
          <mxGeometry width="50" height="50" relative="1" as="geometry">
            <mxPoint x="640.62" y="1049" as="sourcePoint"/>
            <mxPoint x="510.62" y="1049" as="targetPoint"/>
          </mxGeometry>
        </mxCell>
        <mxCell id="iJIT8fu7xfQn46Ji7LRA-145" value="Send results" style="rounded=0;whiteSpace=wrap;html=1;strokeColor=#000000;" parent="1" vertex="1">
          <mxGeometry x="530.62" y="1003" width="90" height="41" as="geometry"/>
        </mxCell>
        <mxCell id="iJIT8fu7xfQn46Ji7LRA-139" value="" style="rounded=0;whiteSpace=wrap;html=1;" parent="1" vertex="1">
          <mxGeometry x="645.62" y="930" width="10" height="125" as="geometry"/>
        </mxCell>
        <mxCell id="iJIT8fu7xfQn46Ji7LRA-151" value="" style="endArrow=classic;html=1;dashed=1;" parent="1" edge="1">
          <mxGeometry width="50" height="50" relative="1" as="geometry">
            <mxPoint x="490" y="1065" as="sourcePoint"/>
            <mxPoint x="360" y="1065" as="targetPoint"/>
          </mxGeometry>
        </mxCell>
        <mxCell id="iJIT8fu7xfQn46Ji7LRA-152" value="Send results" style="rounded=0;whiteSpace=wrap;html=1;strokeColor=#000000;" parent="1" vertex="1">
          <mxGeometry x="380" y="1019" width="90" height="41" as="geometry"/>
        </mxCell>
        <mxCell id="iJIT8fu7xfQn46Ji7LRA-153" value="" style="endArrow=classic;html=1;dashed=1;" parent="1" edge="1">
          <mxGeometry width="50" height="50" relative="1" as="geometry">
            <mxPoint x="340" y="1081" as="sourcePoint"/>
            <mxPoint x="210" y="1081" as="targetPoint"/>
          </mxGeometry>
        </mxCell>
        <mxCell id="iJIT8fu7xfQn46Ji7LRA-154" value="Show product data" style="rounded=0;whiteSpace=wrap;html=1;strokeColor=#000000;" parent="1" vertex="1">
          <mxGeometry x="230" y="1035" width="90" height="41" as="geometry"/>
        </mxCell>
        <mxCell id="wpIuclm_XfF_KB2vwjBl-1" value="Select view" style="rounded=0;whiteSpace=wrap;html=1;strokeColor=#000000;" vertex="1" parent="1">
          <mxGeometry x="234" y="869" width="90" height="41" as="geometry"/>
        </mxCell>
        <mxCell id="wpIuclm_XfF_KB2vwjBl-2" value="" style="endArrow=classic;html=1;" edge="1" parent="1">
          <mxGeometry width="50" height="50" relative="1" as="geometry">
            <mxPoint x="212" y="915" as="sourcePoint"/>
            <mxPoint x="345" y="915" as="targetPoint"/>
          </mxGeometry>
        </mxCell>
        <mxCell id="wpIuclm_XfF_KB2vwjBl-5" value="Choose update and provide its new data" style="rounded=0;whiteSpace=wrap;html=1;strokeColor=#000000;" vertex="1" parent="1">
          <mxGeometry x="212" y="600.5" width="128" height="41" as="geometry"/>
        </mxCell>
        <mxCell id="wpIuclm_XfF_KB2vwjBl-6" value="" style="endArrow=classic;html=1;" edge="1" parent="1">
          <mxGeometry width="50" height="50" relative="1" as="geometry">
            <mxPoint x="209" y="646.5" as="sourcePoint"/>
            <mxPoint x="342" y="646.5" as="targetPoint"/>
          </mxGeometry>
        </mxCell>
        <mxCell id="wpIuclm_XfF_KB2vwjBl-8" value="&lt;div&gt;Product&lt;/div&gt;" style="rounded=0;whiteSpace=wrap;html=1;" vertex="1" parent="1">
          <mxGeometry x="731" y="50" width="100" height="40" as="geometry"/>
        </mxCell>
        <mxCell id="wpIuclm_XfF_KB2vwjBl-9" style="edgeStyle=orthogonalEdgeStyle;rounded=0;orthogonalLoop=1;jettySize=auto;html=1;" edge="1" parent="1" source="wpIuclm_XfF_KB2vwjBl-8" target="wpIuclm_XfF_KB2vwjBl-10">
          <mxGeometry relative="1" as="geometry">
            <mxPoint x="781" y="760" as="targetPoint"/>
            <mxPoint x="781" y="90" as="sourcePoint"/>
            <Array as="points">
              <mxPoint x="780" y="130"/>
              <mxPoint x="780" y="130"/>
            </Array>
          </mxGeometry>
        </mxCell>
        <mxCell id="wpIuclm_XfF_KB2vwjBl-10" value="" style="rounded=0;whiteSpace=wrap;html=1;" vertex="1" parent="1">
          <mxGeometry x="776" y="665" width="10" height="100" as="geometry"/>
        </mxCell>
        <mxCell id="wpIuclm_XfF_KB2vwjBl-11" style="edgeStyle=none;rounded=0;orthogonalLoop=1;jettySize=auto;html=1;exitX=0.322;exitY=0.965;exitDx=0;exitDy=0;exitPerimeter=0;" edge="1" parent="1" source="wpIuclm_XfF_KB2vwjBl-13">
          <mxGeometry relative="1" as="geometry">
            <mxPoint x="786" y="741" as="targetPoint"/>
            <Array as="points">
              <mxPoint x="823" y="741"/>
            </Array>
          </mxGeometry>
        </mxCell>
        <mxCell id="wpIuclm_XfF_KB2vwjBl-12" style="edgeStyle=none;rounded=0;orthogonalLoop=1;jettySize=auto;html=1;entryX=0.309;entryY=0.005;entryDx=0;entryDy=0;entryPerimeter=0;" edge="1" parent="1" target="wpIuclm_XfF_KB2vwjBl-13">
          <mxGeometry relative="1" as="geometry">
            <mxPoint x="831" y="681" as="targetPoint"/>
            <mxPoint x="786" y="671" as="sourcePoint"/>
            <Array as="points">
              <mxPoint x="822" y="671"/>
            </Array>
          </mxGeometry>
        </mxCell>
        <mxCell id="wpIuclm_XfF_KB2vwjBl-13" value="Update with new data" style="rounded=0;whiteSpace=wrap;html=1;strokeColor=#000000;" vertex="1" parent="1">
          <mxGeometry x="801" y="686" width="69" height="41" as="geometry"/>
        </mxCell>
        <mxCell id="wpIuclm_XfF_KB2vwjBl-14" style="edgeStyle=orthogonalEdgeStyle;rounded=0;orthogonalLoop=1;jettySize=auto;html=1;entryX=0.56;entryY=0.065;entryDx=0;entryDy=0;entryPerimeter=0;" edge="1" parent="1" source="wpIuclm_XfF_KB2vwjBl-10">
          <mxGeometry relative="1" as="geometry">
            <mxPoint x="781" y="1213.8999999999996" as="targetPoint"/>
          </mxGeometry>
        </mxCell>
        <mxCell id="wpIuclm_XfF_KB2vwjBl-18" value="" style="rounded=0;whiteSpace=wrap;html=1;" vertex="1" parent="1">
          <mxGeometry x="776.62" y="945" width="10" height="90" as="geometry"/>
        </mxCell>
        <mxCell id="wpIuclm_XfF_KB2vwjBl-19" style="edgeStyle=orthogonalEdgeStyle;rounded=0;orthogonalLoop=1;jettySize=auto;html=1;" edge="1" parent="1">
          <mxGeometry relative="1" as="geometry">
            <Array as="points">
              <mxPoint x="655" y="667"/>
            </Array>
            <mxPoint x="655" y="667" as="sourcePoint"/>
            <mxPoint x="774" y="667" as="targetPoint"/>
          </mxGeometry>
        </mxCell>
        <mxCell id="wpIuclm_XfF_KB2vwjBl-20" value="Modify found product" style="rounded=0;whiteSpace=wrap;html=1;strokeColor=#000000;" vertex="1" parent="1">
          <mxGeometry x="671.05" y="620" width="90" height="41" as="geometry"/>
        </mxCell>
        <mxCell id="wpIuclm_XfF_KB2vwjBl-21" value="" style="endArrow=classic;html=1;dashed=1;" edge="1" parent="1">
          <mxGeometry width="50" height="50" relative="1" as="geometry">
            <mxPoint x="773" y="758" as="sourcePoint"/>
            <mxPoint x="656" y="757.58" as="targetPoint"/>
          </mxGeometry>
        </mxCell>
        <mxCell id="wpIuclm_XfF_KB2vwjBl-22" value="Confirm Change" style="rounded=0;whiteSpace=wrap;html=1;strokeColor=#000000;" vertex="1" parent="1">
          <mxGeometry x="676" y="711.58" width="90" height="41" as="geometry"/>
        </mxCell>
        <mxCell id="wpIuclm_XfF_KB2vwjBl-25" style="edgeStyle=orthogonalEdgeStyle;rounded=0;orthogonalLoop=1;jettySize=auto;html=1;" edge="1" parent="1">
          <mxGeometry relative="1" as="geometry">
            <Array as="points">
              <mxPoint x="656.55" y="952"/>
            </Array>
            <mxPoint x="656.55" y="952" as="sourcePoint"/>
            <mxPoint x="775.55" y="952" as="targetPoint"/>
          </mxGeometry>
        </mxCell>
        <mxCell id="wpIuclm_XfF_KB2vwjBl-26" value="Retrieve data for found product" style="rounded=0;whiteSpace=wrap;html=1;strokeColor=#000000;" vertex="1" parent="1">
          <mxGeometry x="672.6" y="895" width="90" height="51" as="geometry"/>
        </mxCell>
        <mxCell id="wpIuclm_XfF_KB2vwjBl-27" value="" style="endArrow=classic;html=1;dashed=1;" edge="1" parent="1">
          <mxGeometry width="50" height="50" relative="1" as="geometry">
            <mxPoint x="774.55" y="1028.5" as="sourcePoint"/>
            <mxPoint x="657.55" y="1028.08" as="targetPoint"/>
          </mxGeometry>
        </mxCell>
        <mxCell id="wpIuclm_XfF_KB2vwjBl-28" value="Return data" style="rounded=0;whiteSpace=wrap;html=1;strokeColor=#000000;" vertex="1" parent="1">
          <mxGeometry x="677.55" y="982.08" width="90" height="41" as="geometry"/>
        </mxCell>
        <mxCell id="wpIuclm_XfF_KB2vwjBl-29" value="" style="rounded=0;whiteSpace=wrap;html=1;" vertex="1" parent="1">
          <mxGeometry x="645" y="326.17" width="10" height="103.83" as="geometry"/>
        </mxCell>
        <mxCell id="wpIuclm_XfF_KB2vwjBl-30" value="" style="rounded=0;whiteSpace=wrap;html=1;" vertex="1" parent="1">
          <mxGeometry x="776" y="339.17" width="10" height="70.83" as="geometry"/>
        </mxCell>
        <mxCell id="wpIuclm_XfF_KB2vwjBl-34" style="edgeStyle=orthogonalEdgeStyle;rounded=0;orthogonalLoop=1;jettySize=auto;html=1;" edge="1" parent="1">
          <mxGeometry relative="1" as="geometry">
            <Array as="points">
              <mxPoint x="655" y="341.17"/>
            </Array>
            <mxPoint x="655" y="341.17" as="sourcePoint"/>
            <mxPoint x="774" y="341.17" as="targetPoint"/>
          </mxGeometry>
        </mxCell>
        <mxCell id="wpIuclm_XfF_KB2vwjBl-35" value="Find product with ID&amp;nbsp;" style="rounded=0;whiteSpace=wrap;html=1;strokeColor=#000000;" vertex="1" parent="1">
          <mxGeometry x="671.05" y="294.17" width="90" height="41" as="geometry"/>
        </mxCell>
        <mxCell id="wpIuclm_XfF_KB2vwjBl-36" style="edgeStyle=orthogonalEdgeStyle;rounded=0;orthogonalLoop=1;jettySize=auto;html=1;" edge="1" parent="1">
          <mxGeometry relative="1" as="geometry">
            <Array as="points">
              <mxPoint x="505" y="334.17"/>
            </Array>
            <mxPoint x="505" y="334.17" as="sourcePoint"/>
            <mxPoint x="645" y="334.17" as="targetPoint"/>
          </mxGeometry>
        </mxCell>
        <mxCell id="wpIuclm_XfF_KB2vwjBl-37" value="Call search funciton" style="rounded=0;whiteSpace=wrap;html=1;strokeColor=#000000;" vertex="1" parent="1">
          <mxGeometry x="530" y="284.17" width="90" height="41" as="geometry"/>
        </mxCell>
        <mxCell id="wpIuclm_XfF_KB2vwjBl-38" value="" style="endArrow=classic;html=1;dashed=1;" edge="1" parent="1">
          <mxGeometry width="50" height="50" relative="1" as="geometry">
            <mxPoint x="772" y="396.42" as="sourcePoint"/>
            <mxPoint x="655" y="395.99999999999994" as="targetPoint"/>
          </mxGeometry>
        </mxCell>
        <mxCell id="wpIuclm_XfF_KB2vwjBl-39" value="Confirm product ID" style="rounded=0;whiteSpace=wrap;html=1;strokeColor=#000000;" vertex="1" parent="1">
          <mxGeometry x="675" y="350.00000000000006" width="90" height="41" as="geometry"/>
        </mxCell>
        <mxCell id="wpIuclm_XfF_KB2vwjBl-40" value="" style="endArrow=classic;html=1;dashed=1;" edge="1" parent="1">
          <mxGeometry width="50" height="50" relative="1" as="geometry">
            <mxPoint x="640" y="409" as="sourcePoint"/>
            <mxPoint x="510" y="409" as="targetPoint"/>
          </mxGeometry>
        </mxCell>
        <mxCell id="wpIuclm_XfF_KB2vwjBl-41" value="Return Results" style="rounded=0;whiteSpace=wrap;html=1;strokeColor=#000000;" vertex="1" parent="1">
          <mxGeometry x="530" y="363" width="90" height="41" as="geometry"/>
        </mxCell>
        <mxCell id="wpIuclm_XfF_KB2vwjBl-42" value="&lt;div&gt;&lt;font style=&quot;font-size: 18px&quot;&gt;TRACKING PRODUCT&lt;/font&gt;&lt;/div&gt;" style="rounded=0;whiteSpace=wrap;html=1;strokeColor=none;align=left;" vertex="1" parent="1">
          <mxGeometry x="36.67" y="-60" width="270" height="40" as="geometry"/>
        </mxCell>
      </root>
    </mxGraphModel>
  </diagram>
</mxfile>
